<svg xmlns="http://www.w3.org/2000/svg" width="256" height="256" viewBox="0 0 256 256"><g transform="rotate(-10 81 130)"><rect x="57" y="73" width="48" height="117" rx="8" fill="#4A3A34" opacity="1"/><rect x="62" y="81" width="38" height="101" rx="4" fill="#614E48" opacity="1"/><rect x="59" y="95" width="44" height="13" rx="0" fill="#BDC0CC" opacity="1"/><polygon points="81,90 91,101 81,112 71,101" fill="#6FBEFC" opacity="1"/><rect x="59" y="124" width="44" height="13" rx="0" fill="#BDC0CC" opacity="1"/><polygon points="81,119 91,130 81,141 71,130" fill="#6FBEFC" opacity="1"/><rect x="59" y="153" width="44" height="13" rx="0" fill="#BDC0CC" opacity="1"/><polygon points="81,148 91,159 81,170 71,159" fill="#6FBEFC" opacity="1"/></g><g transform="rotate(10 175 130)"><rect x="151" y="73" width="48" height="117" rx="8" fill="#4A3A34" opacity="1"/><rect x="156" y="81" width="38" height="101" rx="4" fill="#614E48" opacity="1"/><rect x="153" y="95" width="44" height="13" rx="0" fill="#BDC0CC" opacity="1"/><polygon points="175,90 185,101 175,112 165,101" fill="#6FBEFC" opacity="1"/><rect x="153" y="124" width="44" height="13" rx="0" fill="#BDC0CC" opacity="1"/><polygon points="175,119 185,130 175,141 165,130" fill="#6FBEFC" opacity="1"/><rect x="153" y="153" width="44" height="13" rx="0" fill="#BDC0CC" opacity="1"/><polygon points="175,148 185,159 175,170 165,159" fill="#6FBEFC" opacity="1"/></g></svg>