<svg xmlns="http://www.w3.org/2000/svg" width="1024" height="1024" viewBox="0 0 1024 1024"><g transform="translate(0 0) scale(2.0 2.0)"><rect x="28" y="68" width="200" height="119" rx="9" fill="#C2894E" opacity="1"/><rect x="37" y="77" width="182" height="101" rx="6" fill="#7F563C" opacity="1"/><circle cx="46" cy="86" r="5" fill="#BDC0CC" opacity="1"/><circle cx="210" cy="86" r="5" fill="#BDC0CC" opacity="1"/><circle cx="46" cy="169" r="5" fill="#BDC0CC" opacity="1"/><circle cx="210" cy="169" r="5" fill="#BDC0CC" opacity="1"/><text x="51" y="140" fill="#FEFEFE" font-family="DejaVu Sans,sans-serif" font-weight="bold" font-size="28">МАГАЗИН</text></g><g transform="translate(512 0) scale(2.0 2.0)"><rect x="30" y="47" width="196" height="156" rx="5" fill="#F04F4F" opacity="1"/><rect x="49" y="47" width="26" height="156" rx="0" fill="#FEFEFE" opacity="1"/><rect x="104" y="47" width="26" height="156" rx="0" fill="#FEFEFE" opacity="1"/><rect x="159" y="47" width="26" height="156" rx="0" fill="#FEFEFE" opacity="1"/><path d="M30 178H226" fill="none" stroke="#7F563C" stroke-width="9" stroke-linecap="round" stroke-linejoin="round" opacity="1"/></g><g transform="translate(0 512) scale(2.0 2.0)"><rect x="34" y="48" width="188" height="160" rx="7" fill="#C2894E" opacity="1"/><path d="M34 97L222 97" fill="none" stroke="#7F563C" stroke-width="8" stroke-linecap="round" stroke-linejoin="round" opacity="1"/><path d="M34 156L222 156" fill="none" stroke="#7F563C" stroke-width="8" stroke-linecap="round" stroke-linejoin="round" opacity="1"/><circle cx="48" cy="65" r="5" fill="#BDC0CC" opacity="1"/><circle cx="208" cy="65" r="5" fill="#BDC0CC" opacity="1"/><circle cx="48" cy="185" r="5" fill="#BDC0CC" opacity="1"/><circle cx="208" cy="185" r="5" fill="#BDC0CC" opacity="1"/></g><g transform="translate(512 512) scale(2.0 2.0)"><polygon points="40,85 207,85 207,118 161,139 153,185 188,193 188,210 74,210 74,193 111,185 103,139 40,124 25,105" fill="#BDC0CC" opacity="1"/><polygon points="164,28 169.657,41.3431 183,47 169.657,52.6569 164,66 158.343,52.6569 145,47 158.343,41.3431" fill="#FFF20A" opacity="1"/></g></svg>