<svg xmlns="http://www.w3.org/2000/svg" width="1024" height="512" viewBox="0 0 1024 512"><g transform="translate(0 0) scale(1.0 1.0)"><rect x="22" y="22" width="212" height="212" rx="18" fill="#214057" stroke="#BDC0CC" stroke-width="5" opacity="1"/><path d="M43 175L211 175" fill="none" stroke="#BDC0CC" stroke-width="4" stroke-linecap="round" stroke-linejoin="round" opacity="1"/></g><g transform="translate(256 0) scale(1.0 1.0)"><rect x="22" y="75" width="212" height="106" rx="14" fill="#214057" stroke="#BDC0CC" stroke-width="5" opacity="1"/></g><g transform="translate(512 0) scale(1.0 1.0)"><rect x="24" y="84" width="208" height="88" rx="18" fill="#214057" stroke="#FEFEFE" stroke-width="5" opacity="1"/></g><g transform="translate(768 0) scale(1.0 1.0)"><rect x="24" y="84" width="208" height="88" rx="18" fill="#818591" stroke="#BDC0CC" stroke-width="5" opacity="0.45"/></g><g transform="translate(0 256) scale(1.0 1.0)"><rect x="24" y="84" width="208" height="88" rx="18" fill="#214057" stroke="#BDC0CC" stroke-width="5" opacity="1"/><circle cx="65" cy="128" r="16" fill="#BDC0CC" opacity="1"/><circle cx="128" cy="128" r="16" fill="#BDC0CC" opacity="1"/><circle cx="191" cy="128" r="16" fill="#BDC0CC" opacity="1"/></g><g transform="translate(256 256) scale(1.0 1.0)"><rect x="24" y="84" width="208" height="88" rx="30" fill="#214057" stroke="#BDC0CC" stroke-width="5" opacity="1"/></g><g transform="translate(512 256) scale(1.0 1.0)"><polygon points="51,108 149,108 149,72 208,128 149,184 149,148 51,148" fill="#BDC0CC" opacity="1"/></g><g transform="translate(768 256) scale(1.0 1.0)"><rect x="34" y="34" width="188" height="188" rx="18" fill="#214057" stroke="#BDC0CC" stroke-width="5" opacity="1"/></g></svg>